#!OML:ASF F:\VICON\USERDATA\INSTALL\rory3\rory3.ASF
:FULLY-SPECIFIED
:DEGREES
159
root 0.44807 17.8907 5.19325 -1.48101 5.22852 0.800855
lowerback 8.8478 -1.66083 -2.55628
upperback -0.594153 -2.41113 1.33405
thorax -5.42301 -1.0959 3.15215
lowerneck -16.3209 -2.80848 -2.05274
upperneck 23.1106 -3.30313 -0.334867
head 10.0897 -1.74685 -0.216758
rclavicle -1.17531e-014 6.36111e-015
rhumerus -39.3666 -28.6282 -71.0051
rradius 17.9867
rwrist 14.4861
rhand -15.9912 24.8867
rfingers 7.12502
rthumb 10.2086 -4.84559
lclavicle -1.17531e-014 6.36111e-015
lhumerus -22.747 -5.41458 84.3905
lradius 31.5183
lwrist 5.75973
lhand -26.2032 26.6421
lfingers 7.12502
lthumb 0.34948 56.6215
rfemur -26.7664 3.59396 21.8402
rtibia 27.3191
rfoot -4.15325 -7.39064
rtoes 5.75672
lfemur 12.0034 -2.47451 -23.2148
ltibia 33.3931
lfoot -2.65856 -10.7089
ltoes -20.9077
160
root 0.442539 17.9124 5.41994 -1.79264 4.77265 0.307022
lowerback 8.79025 -1.47646 -1.84051
upperback -0.547787 -2.08904 1.3169
thorax -5.38984 -0.958845 2.68619
lowerneck -16.2914 -2.90373 -1.96504
upperneck 23.1594 -3.45132 -0.377462
head 10.1002 -1.8126 -0.266303
rclavicle -2.75689e-014 -2.38542e-015
rhumerus -39.7051 -30.0678 -70.0988
rradius 17.3801
rwrist 15.7851
rhand -15.5727 27.342
rfingers 7.12502
rthumb 10.6124 -2.37001
lclavicle -2.75689e-014 -2.38542e-015
lhumerus -22.9173 -4.99068 84.2407
lradius 30.9223
lwrist 5.5251
lhand -26.836 24.734
lfingers 7.12502
lthumb -0.261676 54.7136
rfemur -26.1538 3.07909 22.8148
rtibia 28.1745
rfoot -4.11513 -6.25023
rtoes 5.36534
lfemur 11.4264 -2.04137 -22.4981
ltibia 35.4025
lfoot 0.255691 -11.9322
ltoes -20.0818
161
root 0.4357 17.9214 5.63105 -1.94865 4.39834 0.229483
lowerback 8.76243 -1.39739 -1.73869
upperback -0.587924 -1.97195 1.33021
thorax -5.42592 -0.902844 2.62764
lowerneck -16.1014 -2.8241 -1.97829
upperneck 23.1846 -3.33916 -0.384223
head 10.0724 -1.76367 -0.248578
rclavicle 2.01269e-015 3.97569e-016
rhumerus -39.9989 -30.6663 -69.4646
rradius 17.0271
rwrist 16.9609
rhand -15.5408 27.4904
rfingers 7.12502
rthumb 10.6431 -2.22007
lclavicle 2.01269e-015 3.97569e-016
lhumerus -23.5248 -3.93906 83.9965
lradius 30.839
lwrist 5.5811
lhand -26.3257 23.7886
lfingers 7.12502
lthumb 0.231177 53.7683
rfemur -25.7604 2.63615 23.2607
rtibia 28.9466
rfoot -4.08693 -5.80336
rtoes 2.15872
lfemur 10.639 -1.49761 -22.1265
ltibia 37.2566
lfoot 3.34958 -13.336
ltoes -17.9765
162
root 0.427832 17.9275 5.84001 -2.11094 4.10731 0.272064
lowerback 8.75578 -1.38195 -1.7811
upperback -0.6031 -1.95475 1.3501
thorax -5.43702 -0.892548 2.67025
lowerneck -16.3648 -2.73103 -1.94976
upperneck 23.4954 -3.16402 -0.567401
head 10.2294 -1.70205 -0.301713
rclavicle 3.75206e-014 -1.35174e-014
rhumerus -39.9228 -30.5344 -69.4005
rradius 16.9005
rwrist 17.5334
rhand -15.407 26.8947
rfingers 7.12502
rthumb 10.7722 -2.80905
lclavicle 3.75206e-014 -1.35174e-014
lhumerus -24.2035 -2.60172 83.6865
lradius 31.1342
lwrist 6.03812
lhand -25.0535 24.2794
lfingers 7.12502
lthumb 1.45991 54.2542
rfemur -25.2757 2.27636 23.4928
rtibia 29.5718
rfoot -4.60841 -5.83514
rtoes 2.50481
lfemur 9.92316 -1.03862 -21.9231
ltibia 39.0484
lfoot 6.09387 -14.5101
ltoes -16.275
163
root 0.419183 17.9423 6.0596 -2.40706 3.55368 0.275298
lowerback 8.84191 -1.14441 -1.68447
upperback -0.616872 -1.63226 1.29044
thorax -5.52299 -0.735584 2.51445
lowerneck -16.2747 -2.7768 -2.06642
upperneck 23.5106 -3.21844 -0.490504
head 10.2219 -1.72858 -0.261293
rclavicle -1.73937e-015 1.39149e-014
rhumerus -40.0612 -30.8185 -69.2363
rradius 16.9466
rwrist 17.7032
rhand -15.1746 26.1552
rfingers 7.12502
rthumb 10.9963 -3.53683
lclavicle -1.73937e-015 1.39149e-014
lhumerus -24.8152 -2.0053 83.5976
lradius 31.1892
lwrist 6.3573
lhand -24.6171 23.862
lfingers 7.12502
lthumb 1.88133 53.8334
rfemur -24.4928 2.21385 23.7389
rtibia 30.035
rfoot -4.77335 -5.45452
rtoes 3.1149
lfemur 9.39791 -0.48383 -21.7443
ltibia 40.8978
lfoot 8.17517 -15.4544
ltoes -16.9256
164
root 0.406384 17.9707 6.27549 -2.58655 3.07956 0.0232684
lowerback 8.89343 -0.974857 -1.34315
upperback -0.674695 -1.36962 1.30002
thorax -5.63459 -0.614 2.2998
lowerneck -16.0378 -2.79163 -2.08105
upperneck 23.4609 -3.22616 -0.548616
head 10.1582 -1.74102 -0.276059
rclavicle 9.92197e-015 1.19271e-015
rhumerus -40.1005 -30.8015 -69.271
rradius 16.8729
rwrist 17.6073
rhand -15.425 26.2942
rfingers 7.12502
rthumb 10.7549 -3.4105
lclavicle 9.92197e-015 1.19271e-015
lhumerus -25.5662 -1.56611 83.4871
lradius 31.3485
lwrist 6.42267
lhand -24.5441 24.4325
lfingers 7.12502
lthumb 1.95185 54.4033
rfemur -23.6673 2.21672 24.2547
rtibia 30.2471
rfoot -5.45138 -4.94628
rtoes 3.61441
lfemur 8.55485 -0.15321 -21.2987
ltibia 42.8757
lfoot 10.1334 -16.1542
ltoes -18.9312
165
root 0.39226 17.9973 6.48257 -2.56143 3.05666 -0.458043
lowerback 8.84224 -1.00121 -0.868493
upperback -0.773424 -1.3441 1.45746
thorax -5.71757 -0.611755 2.19411
lowerneck -16.3117 -2.76593 -2.06449
upperneck 23.7038 -3.13986 -0.732215
head 10.2942 -1.72162 -0.338999
rclavicle -2.0422e-014 5.1684e-015
rhumerus -40.0206 -30.0858 -69.5833
rradius 16.973
rwrist 17.0541
rhand -15.4887 26.6762
rfingers 7.12502
rthumb 10.6934 -3.03162
lclavicle -2.0422e-014 5.1684e-015
lhumerus -26.2321 -1.06584 83.4702
lradius 31.644
lwrist 6.65231
lhand -26.1059 23.4466
lfingers 7.12502
lthumb 0.443442 53.4258
rfemur -22.9893 2.01391 24.9554
rtibia 30.2895
rfoot -6.21091 -4.55248
rtoes 6.40325
lfemur 7.19657 -0.24593 -20.5655
ltibia 45.0263
lfoot 12.8894 -16.6066
ltoes -15.8134
166
root 0.381624 18.0151 6.67902 -2.53816 2.95634 -1.09738
lowerback 8.75934 -1.01409 -0.156699
upperback -0.856784 -1.27649 1.59368
thorax -5.7735 -0.597503 1.92598
lowerneck -16.2536 -2.70616 -1.99068
upperneck 23.5731 -3.06292 -0.786985
head 10.2329 -1.68603 -0.357764
rclavicle 1.77291e-014 -2.22639e-014
rhumerus -39.941 -30.1031 -69.5612
rradius 16.7785
rwrist 16.991
rhand -15.4461 27.2904
rfingers 7.12502
rthumb 10.7345 -2.41533
lclavicle 1.77291e-014 -2.22639e-014
lhumerus -26.8659 -0.701059 83.3907
lradius 31.8254
lwrist 6.87535
lhand -28.3037 20.7043
lfingers 7.12502
lthumb -1.67927 50.6774
rfemur -22.2849 2.10197 25.7945
rtibia 30.2228
rfoot -6.5749 -4.67196
rtoes 6.68975
lfemur 5.62873 -0.145118 -19.6315
ltibia 47.3488
lfoot 16.1196 -17.2987
ltoes -6.52609
167
root 0.37528 18.0274 6.86904 -2.52015 2.76819 -1.52101
lowerback 8.75182 -0.923804 0.407042
upperback -0.967344 -1.09045 1.65586
thorax -5.9012 -0.521664 1.65027
lowerneck -15.9033 -2.76965 -2.05073
upperneck 23.2647 -3.14283 -0.792966
head 10.0566 -1.72885 -0.351464
rclavicle -3.08116e-015 0
rhumerus -39.7981 -30.3974 -69.3635
rradius 16.3383
rwrist 17.2
rhand -15.9235 26.4925
rfingers 7.12502
rthumb 10.274 -3.23659
lclavicle -3.08116e-015 0
lhumerus -27.5435 -0.615953 83.4501
lradius 31.911
lwrist 7.14203
lhand -28.6682 22.0814
lfingers 7.12502
lthumb -2.03123 52.0514
rfemur -21.6158 2.1862 26.3943
rtibia 30.1263
rfoot -6.71516 -4.89442
rtoes 4.09175
lfemur 4.25732 -0.0246777 -19.008
ltibia 49.7373
lfoot 18.4726 -17.9953
ltoes -8.57229
168
root 0.368557 18.0387 7.06272 -2.46792 2.54695 -1.93086
lowerback 8.76524 -0.83564 0.948917
upperback -1.07202 -0.906397 1.75293
thorax -6.03087 -0.446623 1.42374
lowerneck -16.0976 -2.79203 -2.12121
upperneck 23.3218 -3.13063 -0.865313
head 10.1144 -1.73773 -0.367335
rclavicle 6.90156e-015 1.78906e-014
rhumerus -39.5395 -30.4352 -69.3351
rradius 16.1709
rwrist 17.5871
rhand -16.4996 24.4972
rfingers 7.12502
rthumb 9.71816 -5.25855
lclavicle 6.90156e-015 1.78906e-014
lhumerus -28.1411 -0.347397 83.4942
lradius 31.9315
lwrist 7.27801
lhand -28.1595 23.6605
lfingers 7.12502
lthumb -1.54 53.6347
rfemur -20.8934 2.24108 26.969
rtibia 29.9076
rfoot -6.87019 -4.86879
rtoes 3.26157
lfemur 3.01232 0.175772 -18.3936
ltibia 52.0539
lfoot 19.0778 -17.8954
ltoes -7.28873
169
root 0.358882 18.0558 7.25254 -2.41298 2.16844 -2.48557
lowerback 8.65029 -0.728027 1.50807
upperback -1.06436 -0.695512 1.92204
thorax -5.96633 -0.358611 1.25488
lowerneck -16.4814 -2.73818 -1.97321
upperneck 23.4416 -3.00486 -1.17154
head 10.2221 -1.70288 -0.490546
rclavicle -2.00027e-015 1.70955e-014
rhumerus -38.9527 -29.5812 -70.0301
rradius 16.4085
rwrist 16.9732
rhand -16.8761 23.9604
rfingers 7.12502
rthumb 9.35487 -5.81206
lclavicle -2.00027e-015 1.70955e-014
lhumerus -28.572 -0.109763 83.5376
lradius 31.922
lwrist 7.46039
lhand -28.4474 23.9016
lfingers 7.12502
lthumb -1.81802 53.8736
rfemur -20.0669 2.52548 27.7041
rtibia 29.5727
rfoot -7.13793 -4.72118
rtoes 4.74048
lfemur 1.60846 0.577231 -17.606
ltibia 54.2042
lfoot 19.2426 -17.2796
ltoes -5.12449
170
root 0.344842 18.0862 7.43441 -2.46581 1.76747 -3.06982
lowerback 8.68546 -0.595539 2.06258
upperback -0.968722 -0.452702 2.06013
thorax -5.89208 -0.254581 1.05351
lowerneck -16.656 -2.72449 -1.7877
upperneck 23.2506 -2.98974 -1.337
head 10.1798 -1.69833 -0.578066
rclavicle 1.34552e-014 -8.34896e-015
rhumerus -38.1472 -28.8134 -70.9837
rradius 16.6514
rwrist 16.0478
rhand -17.0872 24.0452
rfingers 7.12502
rthumb 9.15118 -5.73622
lclavicle 1.34552e-014 -8.34896e-015
lhumerus -28.7423 -0.0889838 83.5601
lradius 31.8625
lwrist 7.89104
lhand -28.741 26.0961
lfingers 7.12502
lthumb -2.10155 56.0655
rfemur -19.2286 2.84044 28.4921
rtibia 29.3105
rfoot -7.4569 -4.71922
rtoes 5.14636
lfemur 0.286544 0.992232 -16.8061
ltibia 56.1511
lfoot 18.9711 -17.3591
ltoes -9.95296
171
root 0.338668 18.1204 7.62549 -2.51443 1.59682 -3.43946
lowerback 8.6517 -0.535228 2.55637
upperback -0.883889 -0.320141 2.11943
thorax -5.78723 -0.203362 0.818441
lowerneck -16.7217 -2.75325 -1.85505
upperneck 22.9987 -3.02227 -1.2881
head 10.1038 -1.71244 -0.55182
rclavicle -1.39336e-014 -1.51076e-014
rhumerus -37.5664 -28.9037 -71.2633
rradius 16.6794
rwrist 16.1118
rhand -16.9908 24.0108
rfingers 7.12502
rthumb 9.24426 -5.76653
lclavicle -1.39336e-014 -1.51076e-014
lhumerus -29.0432 0.123719 83.5256
lradius 31.7338
lwrist 8.08784
lhand -28.3525 28.1339
lfingers 7.12502
lthumb -1.72639 58.1066
rfemur -18.4288 2.87839 29.0293
rtibia 29.2215
rfoot -7.73425 -4.7821
rtoes 4.09208
lfemur -0.83113 1.29839 -16.2855
ltibia 57.9038
lfoot 17.0403 -17.2627
ltoes -15.1368
172
root 0.340829 18.1346 7.81106 -2.41405 1.57814 -3.10435
lowerback 8.4695 -0.441309 2.39983
upperback -0.958187 -0.226121 1.95232
thorax -5.76099 -0.155093 0.717907
lowerneck -16.5746 -2.73073 -1.79184
upperneck 22.9904 -3.01338 -1.28184
head 10.0717 -1.70197 -0.556321
rclavicle 4.74909e-015 1.90833e-014
rhumerus -37.2632 -28.9858 -71.2924
rradius 16.5513
rwrist 16.2035
rhand -16.7404 24.4019
rfingers 7.12502
rthumb 9.48582 -5.36459
lclavicle 4.74909e-015 1.90833e-014
lhumerus -29.5775 0.456103 83.3795
lradius 31.205
lwrist 8.431
lhand -28.2775 26.115
lfingers 7.12502
lthumb -1.6539 56.0884
rfemur -17.9187 2.8703 28.7429
rtibia 29.376
rfoot -8.12006 -4.83802
rtoes 3.48774
lfemur -2.08396 1.45035 -16.6626
ltibia 59.5745
lfoot 14.4846 -16.2118
ltoes -16.4838
173
root 0.338499 18.1186 7.97655 -2.30006 1.33074 -3.09557
lowerback 8.48218 -0.321256 2.44645
upperback -1.05562 -0.0588486 1.93241
thorax -5.86996 -0.0756781 0.649659
lowerneck -16.3948 -2.68515 -1.8768
upperneck 22.845 -2.95589 -1.18198
head 9.98877 -1.67059 -0.494641
rclavicle 6.91709e-015 1.47101e-014
rhumerus -36.8713 -28.8534 -71.5047
rradius 16.6273
rwrist 16.1212
rhand -16.65 24.6263
rfingers 7.12502
rthumb 9.57303 -5.13624
lclavicle 6.91709e-015 1.47101e-014
lhumerus -29.9609 0.837335 83.2649
lradius 30.5128
lwrist 8.80602
lhand -28.4891 23.9818
lfingers 7.12502
lthumb -1.85833 53.9534
rfemur -17.504 3.06817 28.8227
rtibia 29.4587
rfoot -8.49875 -4.82795
rtoes 3.80309
lfemur -3.28535 1.81977 -16.6094
ltibia 61.0907
lfoot 11.8906 -15.3586
ltoes -20.8983
